fontCallback.success({"glyphs":{"S":{"x_min":54.4375,"x_max":646.53125,"ha":694,"o":"m 69 22 b 307 -15 144 -4 230 -15 b 646 256 479 -15 646 56 b 449 520 646 400 558 458 l 356 576 b 204 737 300 609 204 661 b 359 862 204 827 281 862 b 579 815 435 862 507 838 l 579 945 b 366 973 510 963 436 973 b 54 726 209 973 54 911 b 258 473 54 587 153 533 l 344 422 b 496 237 416 377 496 337 b 318 95 496 133 405 95 b 69 166 231 95 144 122 l 69 22 "},"¦":{"x_min":110.25,"x_max":242.28125,"ha":360,"o":"m 242 558 l 242 1056 l 110 1056 l 110 558 l 242 558 m 242 -188 l 242 309 l 110 309 l 110 -188 l 242 -188 "},"/":{"x_min":-13.96875,"x_max":442,"ha":438,"o":"m 130 -188 l 442 1056 l 297 1056 l -13 -188 l 130 -188 "},"y":{"x_min":4,"x_max":602,"ha":617,"o":"m 279 -284 l 602 661 l 465 661 l 313 183 l 310 183 l 140 661 l 4 661 l 250 -4 l 159 -284 l 279 -284 "},"Á":{"x_min":12,"x_max":821,"ha":849,"o":"m 821 0 l 499 958 l 332 958 l 12 0 l 156 0 l 247 273 l 583 273 l 675 0 l 821 0 m 547 384 l 278 384 l 415 830 l 417 830 l 547 384 m 485 1073 l 599 1305 l 435 1305 l 372 1073 l 485 1073 "},"g":{"x_min":54.4375,"x_max":581.1875,"ha":694,"o":"m 458 9 b 269 -200 458 -126 416 -200 b 83 -147 202 -200 141 -176 l 83 -273 b 281 -297 148 -290 215 -297 b 581 -26 462 -297 581 -225 l 581 661 l 458 661 l 458 569 l 455 569 b 285 676 430 637 355 676 b 54 330 102 676 54 483 b 277 0 54 180 98 0 b 455 112 348 0 430 38 l 458 112 l 458 9 m 315 97 b 190 333 205 97 190 250 b 317 579 190 418 204 579 b 458 345 430 579 458 436 b 315 97 458 256 427 97 "},"²":{"x_min":50.640625,"x_max":430.390625,"ha":507,"o":"m 430 552 l 430 625 l 162 625 b 426 1000 290 736 426 848 b 243 1166 426 1111 344 1166 b 52 1012 144 1166 64 1125 l 159 1012 b 242 1095 159 1066 196 1095 b 329 1006 298 1095 329 1063 b 50 626 329 886 139 701 l 50 552 l 430 552 "},"ë":{"x_min":54.4375,"x_max":552.609375,"ha":617,"o":"m 537 105 b 415 81 498 90 458 81 b 176 379 251 81 176 230 l 552 379 l 552 411 b 318 676 552 562 476 676 b 54 362 132 676 54 543 b 375 -15 54 145 144 -15 b 537 6 431 -15 483 -5 l 537 105 m 182 462 b 191 502 182 475 186 490 b 311 579 213 552 258 579 b 430 462 379 579 430 533 l 182 462 m 525 793 l 525 945 l 357 945 l 357 793 l 525 793 m 245 793 l 245 945 l 77 945 l 77 793 l 245 793 "},"Î":{"x_min":-29,"x_max":382,"ha":360,"o":"m 244 0 l 244 958 l 108 958 l 108 0 l 244 0 m 382 1073 l 247 1280 l 100 1280 l -29 1073 l 81 1073 l 175 1190 l 271 1073 l 382 1073 "},"e":{"x_min":54.4375,"x_max":552.609375,"ha":617,"o":"m 537 105 b 415 81 498 90 458 81 b 176 379 251 81 176 230 l 552 379 l 552 411 b 318 676 552 562 476 676 b 54 362 132 676 54 543 b 375 -15 54 145 144 -15 b 537 6 431 -15 483 -5 l 537 105 m 182 462 b 191 502 182 475 186 490 b 311 579 213 552 258 579 b 430 462 379 579 430 533 l 182 462 "},"Ã":{"x_min":12,"x_max":821,"ha":849,"o":"m 821 0 l 498 958 l 330 958 l 12 0 l 156 0 l 247 273 l 584 273 l 676 0 l 821 0 m 547 384 l 278 384 l 414 830 l 417 830 l 547 384 m 524 1265 b 501 1184 524 1248 531 1184 b 319 1277 477 1184 378 1277 b 243 1226 287 1277 258 1258 b 229 1087 228 1201 229 1118 l 309 1087 b 335 1158 309 1108 302 1158 b 516 1073 359 1158 442 1073 b 605 1265 615 1073 605 1194 l 524 1265 "},"J":{"x_min":0,"x_max":411.0625,"ha":514,"o":"m 274 254 b 134 95 274 148 250 95 b 0 122 85 95 47 106 l 0 2 b 129 -15 43 -8 84 -15 b 411 234 315 -15 411 34 l 411 958 l 274 958 l 274 254 "},"»":{"x_min":56,"x_max":489,"ha":540,"o":"m 389 81 l 489 350 l 389 611 l 262 611 l 351 350 l 262 81 l 389 81 m 182 81 l 282 350 l 182 611 l 56 611 l 144 350 l 56 81 l 182 81 "},"©":{"x_min":20.421875,"x_max":660.140625,"ha":694,"o":"m 660 647 b 340 973 660 826 515 973 b 20 647 164 973 20 826 b 340 320 20 466 164 320 b 660 647 517 320 660 466 m 612 647 b 340 369 612 495 488 369 b 68 647 191 369 68 495 b 340 925 68 798 191 925 b 612 647 488 925 612 798 m 450 565 b 351 523 417 536 396 523 b 230 652 281 523 230 581 b 356 781 230 723 287 781 b 450 738 394 781 423 762 l 485 784 b 356 838 446 818 411 838 b 170 652 255 838 170 756 b 356 466 170 548 255 466 b 485 520 411 466 447 481 l 450 565 "},"ò":{"x_min":53.671875,"x_max":626.390625,"ha":694,"o":"m 340 -15 b 626 330 547 -15 626 137 b 340 676 626 523 547 676 b 53 330 132 676 53 523 b 340 -15 53 136 132 -15 m 340 81 b 189 330 206 81 189 225 b 340 579 189 437 206 579 b 490 330 475 579 490 434 b 340 81 490 226 473 81 m 395 776 l 332 1008 l 168 1008 l 282 776 l 395 776 "},"^":{"x_min":157,"x_max":651,"ha":824,"o":"m 651 440 l 465 895 l 342 895 l 157 440 l 278 440 l 404 769 l 531 440 l 651 440 "},"«":{"x_min":41,"x_max":474,"ha":540,"o":"m 474 81 l 386 343 l 474 611 l 347 611 l 247 343 l 347 81 l 474 81 m 267 81 l 179 343 l 267 611 l 140 611 l 41 343 l 140 81 l 267 81 "},"D":{"x_min":108.890625,"x_max":745.890625,"ha":824,"o":"m 349 0 b 745 481 658 0 745 190 b 349 958 745 768 658 958 l 108 958 l 108 0 l 349 0 m 245 111 l 245 847 l 323 847 b 462 823 371 847 419 844 b 596 479 588 768 596 595 b 470 138 596 362 583 202 b 325 111 427 116 374 111 l 245 111 "},"ÿ":{"x_min":4,"x_max":602,"ha":617,"o":"m 279 -284 l 602 661 l 465 661 l 313 183 l 310 183 l 140 661 l 4 661 l 250 -4 l 159 -284 l 279 -284 m 525 793 l 525 945 l 358 945 l 358 793 l 525 793 m 245 793 l 245 945 l 77 945 l 77 793 l 245 793 "},"í":{"x_min":113.25,"x_max":346,"ha":360,"o":"m 235 0 l 235 661 l 113 661 l 113 0 l 235 0 m 231 776 l 346 1008 l 181 1008 l 118 776 l 231 776 "},"w":{"x_min":56,"x_max":878,"ha":951,"o":"m 732 0 l 878 661 l 759 661 l 657 181 l 654 181 l 513 661 l 420 661 l 279 181 l 276 181 l 174 661 l 56 661 l 205 0 l 334 0 l 465 458 l 468 458 l 603 0 l 732 0 "},"$":{"x_min":71,"x_max":720.25,"ha":797,"o":"m 433 -141 l 433 -15 b 720 231 589 0 720 41 b 533 475 720 362 646 430 b 433 509 501 487 465 497 l 433 846 b 525 711 506 826 521 782 l 695 711 b 433 929 695 850 547 918 l 433 1041 l 351 1041 l 351 929 b 85 693 209 925 85 850 b 351 440 85 529 220 480 l 351 68 b 241 201 275 74 241 124 l 71 201 b 351 -15 85 34 204 -8 l 351 -141 l 433 -141 m 351 541 b 256 709 281 575 256 633 b 351 846 256 777 281 830 l 351 541 m 433 405 b 550 219 517 368 550 316 b 433 68 550 137 516 79 l 433 405 "},"\\":{"x_min":-14,"x_max":442,"ha":438,"o":"m 442 -188 l 130 1056 l -14 1056 l 297 -188 l 442 -188 "},"Ì":{"x_min":5,"x_max":244.25,"ha":360,"o":"m 244 0 l 244 958 l 108 958 l 108 0 l 244 0 m 232 1073 l 169 1305 l 5 1305 l 119 1073 l 232 1073 "},"µ":{"x_min":100.71875,"x_max":671.03125,"ha":707,"o":"m 597 661 l 475 661 l 475 357 b 338 82 475 214 447 82 b 223 280 254 82 223 170 l 223 661 l 100 661 l 100 -297 l 223 -297 b 215 41 217 -184 215 -72 b 328 -15 239 8 281 -15 b 492 95 405 -15 469 30 b 635 -10 509 15 570 -10 b 671 -8 646 -10 662 -9 l 671 89 b 597 165 613 89 597 107 l 597 661 "},"Ç":{"x_min":62.609375,"x_max":720.03125,"ha":746,"o":"m 291 -327 b 393 -356 326 -345 352 -356 b 549 -215 480 -356 549 -311 b 413 -88 549 -133 488 -88 b 398 -90 408 -88 404 -90 l 416 -15 l 436 -15 b 683 41 519 -15 607 6 l 683 170 b 464 95 613 125 547 95 b 212 512 238 95 212 334 b 413 862 212 648 238 862 b 562 695 515 862 566 794 l 720 695 b 417 973 720 879 588 973 b 62 490 137 973 62 731 b 340 -5 62 262 125 47 l 308 -145 b 337 -141 318 -144 328 -141 b 442 -215 386 -141 442 -154 b 382 -276 442 -252 419 -276 b 291 -240 345 -276 318 -261 l 291 -327 "},"-":{"x_min":62.609375,"x_max":568.9375,"ha":643,"o":"m 568 283 l 568 431 l 62 431 l 62 283 l 568 283 "},"Q":{"x_min":62.84375,"x_max":846.84375,"ha":875,"o":"m 846 0 l 846 111 l 672 100 l 669 102 b 710 155 687 115 701 137 b 778 479 761 247 778 376 b 412 973 778 733 705 973 b 62 479 128 973 62 720 b 418 0 62 241 144 0 l 846 0 m 412 111 b 212 479 234 111 212 344 b 412 862 212 616 230 862 b 629 479 603 862 629 627 b 412 111 629 318 619 111 "},"M":{"x_min":107.53125,"x_max":1026.28125,"ha":1157,"o":"m 1026 0 l 1026 958 l 835 958 l 568 173 l 566 173 l 299 958 l 107 958 l 107 0 l 230 0 l 230 794 l 232 794 l 502 0 l 631 0 l 901 794 l 903 794 l 903 0 l 1026 0 "},"C":{"x_min":62.609375,"x_max":720.03125,"ha":746,"o":"m 683 170 b 464 95 613 125 547 95 b 212 512 238 95 212 334 b 413 862 212 648 238 862 b 562 695 515 862 566 794 l 720 695 b 417 973 720 879 588 973 b 62 490 137 973 62 731 b 436 -15 62 233 145 -15 b 683 41 519 -15 607 6 l 683 170 "},"!":{"x_min":170.140625,"x_max":334.828125,"ha":411,"o":"m 311 273 l 322 958 l 182 958 l 193 273 l 311 273 m 334 0 l 334 168 l 170 168 l 170 0 l 334 0 "},"ç":{"x_min":53.078125,"x_max":560.78125,"ha":592,"o":"m 215 -327 b 317 -356 251 -348 274 -356 b 473 -215 405 -356 473 -310 b 337 -88 473 -133 415 -88 b 322 -90 332 -88 328 -90 l 340 -13 b 370 -15 349 -15 359 -15 b 549 10 431 -15 491 -8 l 549 96 b 446 82 515 85 483 82 b 189 378 269 82 189 211 b 321 579 189 461 217 579 b 420 446 401 579 420 514 l 560 446 b 329 676 560 596 476 676 b 53 354 134 676 53 537 b 265 0 53 185 119 44 l 232 -145 b 261 -141 242 -144 251 -141 b 366 -215 308 -141 366 -153 b 306 -276 366 -252 343 -276 b 215 -240 272 -276 243 -260 l 215 -327 "},"È":{"x_min":108.6875,"x_max":639.21875,"ha":694,"o":"m 639 0 l 639 111 l 244 111 l 244 443 l 607 443 l 607 554 l 244 554 l 244 847 l 626 847 l 626 958 l 108 958 l 108 0 l 639 0 m 416 1073 l 353 1305 l 189 1305 l 303 1073 l 416 1073 "},"{":{"x_min":27.21875,"x_max":416.5,"ha":467,"o":"m 149 436 b 292 633 225 459 292 501 b 287 820 292 704 287 751 b 416 970 287 905 334 965 l 416 1063 b 152 831 247 1056 152 965 b 156 626 152 752 156 695 b 27 488 156 519 95 498 l 27 380 b 156 250 95 370 156 350 b 152 37 156 180 152 120 b 416 -194 152 -111 261 -187 l 416 -98 b 287 50 334 -91 287 -34 b 292 236 287 119 292 165 b 149 436 292 368 223 412 "},"X":{"x_min":5,"x_max":752,"ha":772,"o":"m 752 0 l 452 504 l 722 958 l 572 958 l 376 631 l 183 958 l 33 958 l 302 504 l 5 0 l 154 0 l 380 373 l 602 0 l 752 0 "},"ô":{"x_min":53.6875,"x_max":627.078125,"ha":694,"o":"m 341 -15 b 627 330 548 -15 627 137 b 341 676 627 523 548 676 b 53 330 132 676 53 523 b 341 -15 53 136 132 -15 m 341 81 b 189 330 206 81 189 225 b 341 579 189 437 206 579 b 490 330 475 579 490 434 b 341 81 490 226 474 81 m 545 776 l 410 983 l 263 983 l 134 776 l 244 776 l 338 893 l 435 776 l 545 776 "},"¼":{"x_min":66.6875,"x_max":1098.421875,"ha":1183,"o":"m 426 0 l 743 880 l 638 880 l 321 0 l 426 0 m 280 280 l 280 883 l 198 883 l 66 808 l 66 719 b 182 791 103 743 145 768 l 182 280 l 280 280 m 996 0 l 996 155 l 1098 155 l 1098 227 l 996 227 l 996 602 l 892 602 l 650 218 l 650 155 l 899 155 l 899 0 l 996 0 m 899 227 l 743 227 l 898 490 l 899 227 "},"#":{"x_min":84,"x_max":720,"ha":824,"o":"m 468 0 l 533 262 l 631 262 l 657 365 l 559 365 l 597 513 l 694 513 l 720 616 l 623 616 l 690 880 l 578 880 l 511 616 l 378 616 l 444 880 l 333 880 l 266 616 l 172 616 l 146 513 l 240 513 l 202 365 l 109 365 l 84 262 l 176 262 l 111 0 l 222 0 l 288 262 l 421 262 l 356 0 l 468 0 m 447 365 l 314 365 l 352 513 l 485 513 l 447 365 "},"Ê":{"x_min":108.71875,"x_max":639.5,"ha":694,"o":"m 639 0 l 639 111 l 244 111 l 244 443 l 608 443 l 608 554 l 244 554 l 244 847 l 627 847 l 627 958 l 108 958 l 108 0 l 639 0 m 566 1073 l 431 1280 l 284 1280 l 155 1073 l 265 1073 l 359 1190 l 455 1073 l 566 1073 "},")":{"x_min":29.9375,"x_max":365.078125,"ha":463,"o":"m 29 -217 b 364 416 381 -178 364 133 b 356 694 364 510 367 601 b 29 1050 334 909 250 1027 l 29 973 b 210 648 171 951 200 763 b 219 416 217 570 219 494 b 215 192 219 340 220 269 b 29 -140 204 59 183 -107 l 29 -217 "},"Å":{"x_min":12,"x_max":821,"ha":849,"o":"m 821 0 l 499 958 l 332 958 l 12 0 l 156 0 l 247 273 l 584 273 l 676 0 l 821 0 m 547 384 l 278 384 l 415 830 l 417 830 l 547 384 m 555 1212 b 421 1348 555 1286 494 1348 b 277 1212 345 1348 277 1294 b 416 1073 277 1136 340 1073 b 555 1212 491 1073 555 1137 m 477 1213 b 416 1152 477 1177 449 1152 b 355 1212 383 1152 355 1179 b 417 1269 355 1247 386 1269 b 477 1213 447 1269 477 1247 "},"ø":{"x_min":53.9375,"x_max":627.015625,"ha":694,"o":"m 119 -74 l 183 26 b 337 -15 234 -3 275 -15 b 627 319 549 -15 627 115 b 548 592 627 416 614 517 l 616 695 l 561 733 l 500 637 b 346 676 446 666 407 676 b 53 336 139 676 53 531 b 132 68 53 238 70 143 l 64 -37 l 119 -74 m 207 184 b 190 337 196 234 190 286 b 347 578 190 448 211 578 b 437 541 380 578 414 567 l 207 184 m 471 470 b 490 301 486 416 490 358 b 338 82 490 195 463 82 b 243 119 301 82 269 93 l 471 470 "},"â":{"x_min":59.28125,"x_max":535.609375,"ha":643,"o":"m 535 0 l 535 463 b 323 676 535 605 464 676 b 81 477 194 676 81 625 l 210 477 b 313 579 210 543 249 579 b 413 480 368 579 413 548 l 413 379 b 59 162 272 379 59 348 b 243 -15 59 48 134 -15 b 410 81 309 -15 381 19 l 413 81 l 413 0 l 535 0 m 413 258 b 266 81 413 180 350 81 b 195 166 221 81 195 126 b 388 295 195 261 312 295 l 413 295 l 413 258 m 522 776 l 387 983 l 240 983 l 111 776 l 221 776 l 315 893 l 411 776 l 522 776 "},"}":{"x_min":40.828125,"x_max":430.109375,"ha":467,"o":"m 307 436 b 164 236 234 412 164 368 b 170 50 164 165 170 119 b 40 -98 170 -34 122 -91 l 40 -194 b 304 37 196 -187 304 -111 b 300 250 304 120 300 180 b 430 380 300 350 362 370 l 430 488 b 300 626 362 498 300 519 b 304 831 300 695 304 752 b 40 1063 304 965 209 1056 l 40 970 b 170 820 122 965 170 905 b 164 633 170 751 164 704 b 307 436 164 501 231 459 "},"Ä":{"x_min":12,"x_max":821,"ha":849,"o":"m 821 0 l 499 958 l 332 958 l 12 0 l 156 0 l 247 273 l 584 273 l 676 0 l 821 0 m 547 384 l 278 384 l 415 830 l 417 830 l 547 384 m 639 1090 l 639 1243 l 472 1243 l 472 1090 l 639 1090 m 359 1090 l 359 1243 l 191 1243 l 191 1090 l 359 1090 "},"¸":{"x_min":156.53125,"x_max":415.140625,"ha":472,"o":"m 156 -327 b 258 -356 193 -348 216 -356 b 415 -215 347 -356 415 -311 b 279 -88 415 -133 356 -88 b 264 -90 273 -88 269 -90 l 289 22 l 212 22 l 174 -145 b 202 -141 183 -144 193 -141 b 307 -215 250 -141 307 -154 b 247 -276 307 -252 284 -276 b 156 -240 210 -276 185 -261 l 156 -327 "},"a":{"x_min":58.53125,"x_max":534.921875,"ha":643,"o":"m 534 0 l 534 463 b 322 676 534 605 464 676 b 80 477 193 676 80 625 l 209 477 b 313 579 209 543 249 579 b 412 480 367 579 412 548 l 412 379 b 58 162 272 379 58 348 b 242 -15 58 48 133 -15 b 409 81 308 -15 381 19 l 412 81 l 412 0 l 534 0 m 412 258 b 265 81 412 180 349 81 b 194 166 220 81 194 126 b 387 295 194 261 311 295 l 412 295 l 412 258 "},"=":{"x_min":78.9375,"x_max":728.203125,"ha":824,"o":"m 728 415 l 728 538 l 78 538 l 78 415 l 728 415 m 728 168 l 728 291 l 78 291 l 78 168 l 728 168 "},"N":{"x_min":108.890625,"x_max":774.46875,"ha":900,"o":"m 774 0 l 774 958 l 651 958 l 651 208 l 649 208 l 279 958 l 108 958 l 108 0 l 231 0 l 231 768 l 234 768 l 613 0 l 774 0 "},"ú":{"x_min":93.890625,"x_max":598.859375,"ha":721,"o":"m 598 0 l 598 661 l 476 661 l 476 380 b 304 109 476 283 424 109 b 217 218 235 109 221 155 b 216 300 216 245 216 272 l 216 661 l 93 661 l 93 202 b 268 -15 93 87 137 -15 b 473 141 370 -15 440 48 l 476 141 l 476 0 l 598 0 m 409 776 l 524 1008 l 359 1008 l 296 776 l 409 776 "},"2":{"x_min":72.140625,"x_max":627.46875,"ha":746,"o":"m 627 0 l 627 97 l 235 97 b 620 655 398 241 620 413 b 353 895 620 815 499 895 b 73 677 208 895 91 836 l 223 677 b 352 798 223 756 280 798 b 484 665 435 798 484 750 b 72 101 484 484 202 212 l 72 0 l 627 0 "},"ü":{"x_min":93.921875,"x_max":598.890625,"ha":721,"o":"m 598 0 l 598 661 l 476 661 l 476 380 b 304 109 476 283 424 109 b 217 218 235 109 221 155 b 216 300 216 245 216 272 l 216 661 l 93 661 l 93 202 b 268 -15 93 87 137 -15 b 473 141 370 -15 441 48 l 476 141 l 476 0 l 598 0 m 577 793 l 577 945 l 409 945 l 409 793 l 577 793 m 296 793 l 296 945 l 129 945 l 129 793 l 296 793 "},"¯":{"x_min":23.140625,"x_max":439.640625,"ha":472,"o":"m 439 776 l 439 883 l 23 883 l 23 776 l 439 776 "},"Z":{"x_min":26.96875,"x_max":653.03125,"ha":694,"o":"m 653 0 l 653 111 l 187 111 l 631 845 l 631 958 l 50 958 l 50 847 l 473 847 l 26 112 l 26 0 l 653 0 "},"u":{"x_min":93.921875,"x_max":598.890625,"ha":721,"o":"m 598 0 l 598 661 l 476 661 l 476 380 b 304 109 476 283 424 109 b 217 218 235 109 221 155 b 216 300 216 245 216 272 l 216 661 l 93 661 l 93 202 b 268 -15 93 87 137 -15 b 473 141 370 -15 441 48 l 476 141 l 476 0 l 598 0 "},"Ó":{"x_min":62.71875,"x_max":796.359375,"ha":875,"o":"m 428 -15 b 796 479 720 -15 796 225 b 428 973 796 733 720 973 b 62 479 136 973 62 733 b 428 -15 62 225 137 -15 m 428 95 b 212 479 235 95 212 331 b 428 862 212 627 235 862 b 646 479 620 862 646 627 b 428 95 646 330 620 95 m 484 1073 l 599 1305 l 434 1305 l 371 1073 l 484 1073 "},"k":{"x_min":100.71875,"x_max":626.109375,"ha":643,"o":"m 626 0 l 363 372 l 602 661 l 449 661 l 223 397 l 223 958 l 100 958 l 100 0 l 223 0 l 223 341 l 225 341 l 472 0 l 626 0 "},"Ù":{"x_min":98,"x_max":734.6875,"ha":849,"o":"m 598 309 b 413 95 598 176 560 95 b 234 309 270 95 234 180 l 234 958 l 98 958 l 98 283 b 414 -15 98 81 225 -15 b 734 283 602 -15 734 81 l 734 958 l 598 958 l 598 309 m 472 1073 l 409 1305 l 245 1305 l 359 1073 l 472 1073 "},"€":{"x_min":44.921875,"x_max":756.78125,"ha":797,"o":"m 724 161 b 536 93 654 112 602 93 b 330 344 419 93 363 173 l 329 351 l 553 351 l 567 422 l 322 422 l 322 429 b 319 484 322 445 319 466 l 319 488 l 579 488 l 593 559 l 323 559 l 323 566 b 487 823 340 734 396 823 b 607 662 564 823 604 769 l 756 662 b 492 925 756 823 651 925 b 181 559 310 925 198 793 l 84 559 l 70 488 l 178 488 l 178 422 l 58 422 l 44 351 l 182 351 b 511 -15 204 118 326 -15 b 724 38 578 -15 641 1 l 724 161 "},"¢":{"x_min":44.921875,"x_max":611.140625,"ha":668,"o":"m 375 -151 l 375 -15 b 592 26 436 -15 534 -2 l 592 91 b 434 58 539 68 492 58 b 375 68 413 58 396 62 l 375 604 b 470 434 451 586 470 505 l 611 434 b 375 676 611 584 509 658 l 375 788 l 306 788 l 306 676 b 44 352 123 669 44 525 b 306 -15 44 168 115 13 l 306 -151 l 375 -151 m 306 105 b 181 370 216 168 181 259 b 306 606 181 462 201 588 l 306 105 "},"ß":{"x_min":100.71875,"x_max":672.390625,"ha":746,"o":"m 294 1 b 397 -12 328 -8 360 -12 b 672 258 571 -12 672 77 b 475 516 672 401 620 498 l 475 519 b 622 738 583 552 622 625 b 363 973 622 894 504 973 b 100 663 157 973 100 850 l 100 0 l 223 0 l 223 698 b 360 890 223 798 240 890 b 485 733 446 890 485 811 b 344 559 485 631 453 559 l 344 476 b 536 261 494 472 536 411 b 383 70 536 156 498 70 b 294 87 352 70 321 77 l 294 1 "},"é":{"x_min":54.53125,"x_max":552.6875,"ha":617,"o":"m 537 105 b 415 81 498 90 458 81 b 177 379 251 81 177 230 l 552 379 l 552 411 b 318 676 552 562 476 676 b 54 362 132 676 54 543 b 375 -15 54 145 144 -15 b 537 6 431 -15 483 -5 l 537 105 m 182 462 b 192 502 182 475 186 490 b 311 579 213 552 258 579 b 430 462 379 579 430 533 l 182 462 m 371 776 l 486 1008 l 321 1008 l 258 776 l 371 776 "},"s":{"x_min":50.359375,"x_max":468.21875,"ha":514,"o":"m 50 11 b 224 -15 108 -5 164 -15 b 468 184 355 -15 468 33 b 172 508 468 384 172 400 b 279 579 172 558 239 579 b 427 540 332 579 379 562 l 427 652 b 280 676 377 663 333 676 b 50 491 166 676 50 623 b 345 166 50 302 345 277 b 213 81 345 95 268 81 b 50 120 164 81 96 98 l 50 11 "},"B":{"x_min":108.890625,"x_max":669.671875,"ha":746,"o":"m 368 0 b 669 262 540 0 669 65 b 479 508 669 388 607 490 l 479 511 b 624 730 578 550 624 620 b 379 958 624 883 518 958 l 108 958 l 108 0 l 368 0 m 245 561 l 245 847 l 322 847 b 488 705 420 847 488 823 b 330 561 488 601 424 561 l 245 561 m 245 111 l 245 450 l 336 450 b 533 275 447 450 533 398 b 349 111 533 165 451 111 l 245 111 "},"?":{"x_min":102.078125,"x_max":579.828125,"ha":617,"o":"m 321 273 l 321 311 b 401 481 321 405 338 418 l 458 540 b 579 756 524 606 579 654 b 296 973 579 918 431 973 b 102 947 231 973 166 962 l 102 816 b 295 868 152 845 238 868 b 442 751 368 868 442 836 b 362 618 442 694 398 655 l 281 534 b 194 338 209 456 194 450 l 194 273 l 321 273 m 340 0 l 340 168 l 171 168 l 171 0 l 340 0 "},"H":{"x_min":108.890625,"x_max":749.96875,"ha":875,"o":"m 749 0 l 749 958 l 613 958 l 613 554 l 245 554 l 245 958 l 108 958 l 108 0 l 245 0 l 245 443 l 613 443 l 613 0 l 749 0 "},"î":{"x_min":-29,"x_max":382,"ha":360,"o":"m 236 0 l 236 661 l 113 661 l 113 0 l 236 0 m 382 776 l 247 983 l 100 983 l -29 776 l 81 776 l 175 893 l 271 776 l 382 776 "},"c":{"x_min":53.078125,"x_max":560.78125,"ha":592,"o":"m 549 95 b 446 81 515 84 483 81 b 189 377 269 81 189 211 b 321 579 189 461 217 579 b 420 445 401 579 420 513 l 560 445 b 329 676 560 595 476 676 b 53 354 134 676 53 537 b 370 -15 53 150 152 -15 b 549 9 431 -15 491 -8 l 549 95 "},"¶":{"x_min":114.328125,"x_max":679.203125,"ha":746,"o":"m 585 -298 l 585 904 l 679 904 l 679 958 l 586 958 b 114 622 366 958 114 898 b 415 308 114 431 247 341 l 415 -298 l 466 -298 l 466 904 l 533 904 l 533 -298 l 585 -298 "},"¥":{"x_min":-16.8125,"x_max":722.171875,"ha":721,"o":"m 420 0 l 420 229 l 572 229 l 572 298 l 420 298 l 420 373 l 572 373 l 572 443 l 420 443 l 722 958 l 569 958 l 352 587 l 135 958 l -16 958 l 284 443 l 131 443 l 131 373 l 284 373 l 284 298 l 131 298 l 131 229 l 284 229 l 284 0 l 420 0 "},"(":{"x_min":86.8125,"x_max":423.3125,"ha":463,"o":"m 423 -140 b 236 197 270 -106 247 65 b 232 416 231 270 232 343 b 236 638 232 490 231 565 b 423 973 247 776 269 936 l 423 1050 b 87 416 69 1016 87 697 b 95 138 87 323 84 231 b 423 -216 117 -76 201 -194 l 423 -140 "},"U":{"x_min":98,"x_max":735,"ha":849,"o":"m 598 309 b 413 95 598 176 560 95 b 234 309 270 95 234 180 l 234 958 l 98 958 l 98 283 b 415 -15 98 81 225 -15 b 735 283 602 -15 735 81 l 735 958 l 598 958 l 598 309 "},"◊":{"x_min":57,"x_max":657,"ha":760,"o":"m 390 0 l 657 486 l 390 972 l 322 972 l 57 484 l 322 0 l 390 0 m 356 130 l 163 486 l 356 841 l 550 486 l 356 130 "},"Ñ":{"x_min":109.078125,"x_max":774.5625,"ha":900,"o":"m 774 0 l 774 958 l 652 958 l 652 208 l 649 208 l 279 958 l 109 958 l 109 0 l 231 0 l 231 768 l 234 768 l 613 0 l 774 0 m 549 1265 b 526 1184 549 1248 556 1184 b 345 1277 502 1184 404 1277 b 268 1226 313 1277 283 1258 b 254 1087 253 1201 254 1118 l 335 1087 b 360 1158 335 1108 328 1158 b 541 1073 385 1158 468 1073 b 630 1265 639 1073 630 1194 l 549 1265 "},"F":{"x_min":108.890625,"x_max":612.5,"ha":643,"o":"m 245 0 l 245 443 l 593 443 l 593 554 l 245 554 l 245 847 l 612 847 l 612 958 l 108 958 l 108 0 l 245 0 "},"­":{"x_min":62.609375,"x_max":568.9375,"ha":643,"o":"m 568 283 l 568 431 l 62 431 l 62 283 l 568 283 "},":":{"x_min":157.890625,"x_max":345.71875,"ha":411,"o":"m 345 469 l 345 661 l 157 661 l 157 469 l 345 469 m 345 0 l 345 191 l 157 191 l 157 0 l 345 0 "},"Û":{"x_min":98.03125,"x_max":734.96875,"ha":849,"o":"m 598 309 b 413 95 598 176 560 95 b 234 309 270 95 234 180 l 234 958 l 98 958 l 98 283 b 415 -15 98 81 225 -15 b 734 283 602 -15 734 81 l 734 958 l 598 958 l 598 309 m 622 1073 l 487 1280 l 340 1280 l 211 1073 l 321 1073 l 415 1190 l 511 1073 l 622 1073 "},"*":{"x_min":7.9375,"x_max":420.0625,"ha":438,"o":"m 357 608 b 309 693 342 636 327 667 b 275 728 303 704 285 718 l 278 730 b 326 717 282 728 309 722 l 420 717 l 420 814 l 326 814 b 278 800 312 809 282 802 l 275 802 b 309 837 285 812 303 826 b 357 925 327 864 342 897 l 275 974 b 226 886 260 946 239 915 b 216 837 224 872 218 841 l 213 837 b 199 886 209 850 206 871 b 150 974 187 915 167 946 l 67 925 b 115 837 82 897 97 864 b 150 802 118 834 148 804 l 148 800 b 101 814 138 804 116 809 l 7 814 l 7 717 l 101 717 b 148 730 101 717 145 728 l 150 728 b 115 693 139 718 122 704 b 67 608 97 667 82 636 l 150 560 b 199 643 167 586 187 615 b 213 693 206 658 209 678 l 216 693 b 226 643 218 690 224 658 b 275 560 237 617 260 586 l 357 608 "},"°":{"x_min":112.96875,"x_max":431.46875,"ha":556,"o":"m 431 736 b 272 895 431 825 357 895 b 112 738 187 895 112 829 b 272 573 112 650 186 573 b 431 736 357 573 431 648 m 272 652 b 190 737 227 652 190 693 b 272 816 190 780 230 816 b 353 737 314 816 353 780 b 272 652 353 693 315 652 "},"V":{"x_min":-23,"x_max":780,"ha":772,"o":"m 460 0 l 780 958 l 637 958 l 378 158 l 375 158 l 119 958 l -23 958 l 291 0 l 460 0 "},"å":{"x_min":58.53125,"x_max":534.921875,"ha":643,"o":"m 534 0 l 534 463 b 322 676 534 605 464 676 b 80 477 193 676 80 625 l 209 477 b 313 579 209 543 249 579 b 412 480 367 579 412 548 l 412 379 b 58 162 272 379 58 348 b 242 -15 58 48 133 -15 b 409 81 308 -15 381 19 l 412 81 l 412 0 l 534 0 m 412 258 b 265 81 412 180 349 81 b 194 166 220 81 194 126 b 387 295 194 261 311 295 l 412 295 l 412 258 m 454 915 b 321 1051 454 988 393 1051 b 176 915 245 1051 176 997 b 315 776 176 838 239 776 b 454 915 390 776 454 840 m 377 916 b 315 855 377 880 348 855 b 254 915 283 855 254 881 b 317 972 254 950 285 972 b 377 916 347 972 377 950 "}," ":{"x_min":0,"x_max":0,"ha":411},"0":{"x_min":50.359375,"x_max":681.921875,"ha":746,"o":"m 364 -15 b 681 440 623 -15 681 222 b 364 895 681 658 623 895 b 50 440 106 895 50 656 b 364 -15 50 222 106 -15 m 364 81 b 186 440 194 81 186 315 b 364 798 186 566 194 798 b 545 440 536 798 545 566 b 364 81 545 313 537 81 "},"¾":{"x_min":39.71875,"x_max":1098.671875,"ha":1183,"o":"m 473 0 l 791 880 l 686 880 l 369 0 l 473 0 m 996 0 l 996 155 l 1098 155 l 1098 227 l 996 227 l 996 602 l 893 602 l 650 218 l 650 155 l 899 155 l 899 0 l 996 0 m 899 227 l 743 227 l 898 490 l 899 227 m 226 561 b 331 451 296 561 331 522 b 231 343 331 379 303 343 b 148 418 188 343 148 366 l 39 418 b 237 270 42 306 148 270 b 427 452 354 270 427 326 b 332 598 427 525 397 579 b 416 741 394 620 416 677 b 242 895 416 843 333 895 b 50 752 158 895 56 858 l 158 752 b 237 825 163 804 189 825 b 320 729 299 825 320 787 b 226 633 320 669 284 633 l 198 633 l 198 561 l 226 561 "},"@":{"x_min":62.609375,"x_max":1039.890625,"ha":1125,"o":"m 762 29 b 1039 410 872 29 1039 155 b 578 846 1039 664 841 846 b 62 315 315 846 62 636 b 544 -183 62 -5 274 -183 b 926 -65 808 -183 926 -65 l 883 16 b 551 -81 883 16 777 -81 b 168 312 330 -81 168 59 b 578 744 168 565 357 744 b 940 410 798 744 940 593 b 769 130 940 226 828 130 b 718 180 733 130 718 148 b 726 230 718 191 722 209 l 803 632 l 707 632 l 695 582 b 563 644 666 626 631 644 b 298 250 370 644 298 408 b 473 25 298 140 344 25 b 626 101 533 25 586 55 b 762 29 642 65 681 29 m 487 120 b 402 248 423 120 402 191 b 564 549 402 341 446 549 b 653 394 635 549 653 457 b 487 120 653 293 605 120 "},"ö":{"x_min":54.4375,"x_max":627.46875,"ha":694,"o":"m 341 -15 b 627 330 548 -15 627 137 b 341 676 627 523 548 676 b 54 330 133 676 54 523 b 341 -15 54 136 133 -15 m 341 81 b 190 330 206 81 190 225 b 341 579 190 437 206 579 b 491 330 476 579 491 434 b 341 81 491 226 475 81 m 563 793 l 563 945 l 396 945 l 396 793 l 563 793 m 283 793 l 283 945 l 115 945 l 115 793 l 283 793 "},"i":{"x_min":102.078125,"x_max":249.078125,"ha":360,"o":"m 249 816 l 249 958 l 102 958 l 102 816 l 249 816 m 236 0 l 236 661 l 114 661 l 114 0 l 236 0 "},"Õ":{"x_min":62.046875,"x_max":796.59375,"ha":875,"o":"m 428 -15 b 796 479 720 -15 796 225 b 428 973 796 733 720 973 b 62 479 135 973 62 733 b 428 -15 62 225 137 -15 m 428 95 b 211 479 234 95 211 331 b 428 862 211 627 234 862 b 646 479 620 862 646 627 b 428 95 646 330 620 95 m 537 1265 b 514 1184 537 1248 544 1184 b 332 1277 490 1184 391 1277 b 255 1226 300 1277 270 1258 b 241 1087 240 1201 241 1118 l 322 1087 b 348 1158 322 1108 315 1158 b 529 1073 372 1158 455 1073 b 618 1265 627 1073 618 1194 l 537 1265 "},"þ":{"x_min":100.71875,"x_max":627.46875,"ha":694,"o":"m 223 -297 l 223 91 l 225 91 b 398 -15 254 20 325 -15 b 627 341 585 -15 627 191 b 405 676 627 490 585 676 b 225 559 328 676 255 634 l 223 559 l 223 958 l 100 958 l 100 -297 l 223 -297 m 364 81 b 223 329 246 81 223 237 b 362 579 223 413 253 579 b 491 330 481 579 491 419 b 364 81 491 244 480 81 "},"]":{"x_min":21.78125,"x_max":315.78125,"ha":463,"o":"m 315 -188 l 315 1055 l 21 1055 l 21 958 l 186 958 l 186 -91 l 21 -91 l 21 -188 l 315 -188 "},"m":{"x_min":102.078125,"x_max":935.078125,"ha":1054,"o":"m 935 0 l 935 458 b 759 676 935 573 890 676 b 575 536 671 676 608 618 l 573 536 b 408 676 560 626 496 676 b 227 529 314 676 255 612 l 224 529 l 224 661 l 102 661 l 102 0 l 224 0 l 224 280 b 371 551 224 362 264 551 b 455 437 445 551 451 498 b 457 361 457 411 457 384 l 457 0 l 579 0 l 579 316 b 722 551 579 391 627 551 b 811 437 797 551 807 501 b 812 361 812 411 812 384 l 812 0 l 935 0 "},"8":{"x_min":78.9375,"x_max":653.328125,"ha":746,"o":"m 499 458 b 638 668 598 484 638 569 b 366 895 638 831 510 895 b 93 668 221 895 93 830 b 232 458 93 568 137 488 l 232 455 b 78 237 123 426 78 350 b 366 -15 78 51 197 -15 b 653 237 537 -15 653 50 b 499 455 653 350 604 423 l 499 458 m 366 508 b 230 658 272 508 230 568 b 366 798 230 745 280 798 b 502 658 453 798 502 745 b 366 508 502 568 460 508 m 366 81 b 215 244 261 81 215 140 b 366 411 215 345 262 411 b 517 244 473 411 517 345 b 366 81 517 137 475 81 "},"R":{"x_min":107.53125,"x_max":687.359375,"ha":746,"o":"m 687 0 l 631 266 b 469 477 609 376 590 452 l 469 480 b 654 706 588 509 654 577 b 379 958 654 883 539 958 l 107 958 l 107 0 l 243 0 l 243 412 l 321 412 b 506 212 461 412 473 330 l 563 0 l 687 0 m 243 523 l 243 847 l 353 847 b 518 690 458 847 518 801 b 322 523 518 569 427 523 l 243 523 "},"á":{"x_min":58.609375,"x_max":535,"ha":643,"o":"m 535 0 l 535 463 b 322 676 535 605 464 676 b 80 477 193 676 80 625 l 209 477 b 313 579 209 543 249 579 b 412 480 367 579 412 548 l 412 379 b 58 162 272 379 58 348 b 242 -15 58 48 133 -15 b 409 81 309 -15 381 19 l 412 81 l 412 0 l 535 0 m 412 258 b 265 81 412 180 349 81 b 194 166 220 81 194 126 b 388 295 194 261 311 295 l 412 295 l 412 258 m 371 776 l 486 1008 l 321 1008 l 258 776 l 371 776 "},"×":{"x_min":80,"x_max":727,"ha":824,"o":"m 727 94 l 496 344 l 727 594 l 626 683 l 405 441 l 182 683 l 84 594 l 311 341 l 80 94 l 175 0 l 404 244 l 630 0 l 727 94 "},"o":{"x_min":54.4375,"x_max":627.46875,"ha":694,"o":"m 341 -15 b 627 330 548 -15 627 137 b 341 676 627 523 548 676 b 54 330 133 676 54 523 b 341 -15 54 136 133 -15 m 341 81 b 190 330 206 81 190 225 b 341 579 190 437 206 579 b 491 330 476 579 491 434 b 341 81 491 226 475 81 "},"5":{"x_min":88.46875,"x_max":675.109375,"ha":746,"o":"m 88 193 b 377 -15 99 34 240 -15 b 675 255 544 -15 675 72 b 411 539 675 426 582 539 b 261 496 356 539 304 528 l 273 783 l 611 783 l 611 880 l 149 880 l 125 379 l 259 379 b 386 441 291 427 332 441 b 539 273 488 441 539 372 b 375 82 539 154 499 82 b 238 193 310 82 238 119 l 88 193 "},"õ":{"x_min":52.71875,"x_max":627.640625,"ha":694,"o":"m 340 -15 b 627 330 548 -15 627 137 b 340 676 627 523 548 676 b 52 330 131 676 52 523 b 340 -15 52 136 131 -15 m 340 81 b 188 330 205 81 188 225 b 340 579 188 437 205 579 b 491 330 476 579 491 434 b 340 81 491 226 475 81 m 447 968 b 424 887 447 951 454 887 b 242 980 399 887 301 980 b 164 929 209 980 179 961 b 150 790 149 904 150 820 l 231 790 b 257 861 231 811 224 861 b 439 776 281 861 365 776 b 528 968 537 776 528 897 l 447 968 "},"7":{"x_min":93.203125,"x_max":634.921875,"ha":746,"o":"m 316 0 l 634 775 l 634 880 l 93 880 l 93 783 l 489 783 l 170 0 l 316 0 "},"K":{"x_min":108.890625,"x_max":756.78125,"ha":772,"o":"m 756 0 l 385 501 l 729 958 l 566 958 l 247 531 l 245 531 l 245 958 l 108 958 l 108 0 l 245 0 l 245 465 l 247 465 l 592 0 l 756 0 "},",":{"x_min":77.859375,"x_max":248,"ha":308,"o":"m 190 -129 l 248 191 l 98 191 l 77 -129 l 190 -129 "},"d":{"x_min":54.4375,"x_max":581.1875,"ha":694,"o":"m 581 0 l 581 958 l 458 958 l 458 569 l 455 569 b 283 676 430 640 353 676 b 54 319 98 676 54 469 b 276 -15 54 169 96 -15 b 455 101 349 -15 430 26 l 458 101 l 458 0 l 581 0 m 318 81 b 190 330 200 81 190 243 b 317 579 190 416 201 579 b 458 331 434 579 458 423 b 318 81 458 247 428 81 "},"¨":{"x_min":6.8125,"x_max":454.609375,"ha":472,"o":"m 454 793 l 454 945 l 287 945 l 287 793 l 454 793 m 174 793 l 174 945 l 6 945 l 6 793 l 174 793 "},"Ô":{"x_min":62.390625,"x_max":795.96875,"ha":875,"o":"m 428 -15 b 795 479 719 -15 795 225 b 428 973 795 733 719 973 b 62 479 135 973 62 733 b 428 -15 62 225 137 -15 m 428 95 b 212 479 235 95 212 331 b 428 862 212 627 235 862 b 646 479 620 862 646 627 b 428 95 646 330 620 95 m 634 1073 l 499 1280 l 352 1280 l 223 1073 l 333 1073 l 427 1190 l 523 1073 l 634 1073 "},"E":{"x_min":108.890625,"x_max":639.71875,"ha":694,"o":"m 639 0 l 639 111 l 245 111 l 245 443 l 608 443 l 608 554 l 245 554 l 245 847 l 627 847 l 627 958 l 108 958 l 108 0 l 639 0 "},"Y":{"x_min":-16.328125,"x_max":722.75,"ha":721,"o":"m 420 0 l 420 443 l 722 958 l 573 958 l 352 588 l 133 958 l -16 958 l 284 443 l 284 0 l 420 0 "},"\"":{"x_min":84,"x_max":471,"ha":565,"o":"m 443 641 l 471 958 l 312 958 l 340 641 l 443 641 m 214 641 l 242 958 l 84 958 l 109 641 l 214 641 "},"ê":{"x_min":54.1875,"x_max":552.3125,"ha":617,"o":"m 537 105 b 414 81 497 90 458 81 b 176 379 251 81 176 230 l 552 379 l 552 411 b 318 676 552 562 476 676 b 54 362 131 676 54 543 b 375 -15 54 145 144 -15 b 537 6 431 -15 482 -5 l 537 105 m 182 462 b 191 502 182 475 186 490 b 311 579 213 552 258 579 b 429 462 379 579 429 533 l 182 462 m 521 776 l 386 983 l 239 983 l 110 776 l 220 776 l 314 893 l 410 776 l 521 776 "},"Ï":{"x_min":-47.640625,"x_max":400.171875,"ha":360,"o":"m 245 0 l 245 958 l 108 958 l 108 0 l 245 0 m 400 1090 l 400 1243 l 232 1243 l 232 1090 l 400 1090 m 119 1090 l 119 1243 l -47 1243 l -47 1090 l 119 1090 "},"Â":{"x_min":12,"x_max":821,"ha":849,"o":"m 821 0 l 499 958 l 332 958 l 12 0 l 156 0 l 247 273 l 583 273 l 676 0 l 821 0 m 547 384 l 278 384 l 415 830 l 417 830 l 547 384 m 622 1073 l 487 1280 l 340 1280 l 211 1073 l 321 1073 l 415 1190 l 511 1073 l 622 1073 "},"Í":{"x_min":108,"x_max":353,"ha":360,"o":"m 244 0 l 244 958 l 108 958 l 108 0 l 244 0 m 238 1073 l 353 1305 l 188 1305 l 125 1073 l 238 1073 "},"´":{"x_min":173.6875,"x_max":401,"ha":472,"o":"m 286 776 l 401 1008 l 236 1008 l 173 776 l 286 776 "},"ì":{"x_min":5,"x_max":236.078125,"ha":360,"o":"m 236 0 l 236 661 l 113 661 l 113 0 l 236 0 m 232 776 l 169 1008 l 5 1008 l 119 776 l 232 776 "},"±":{"x_min":78.9375,"x_max":728.203125,"ha":824,"o":"m 469 191 l 469 483 l 728 483 l 728 606 l 469 606 l 469 868 l 337 868 l 337 606 l 78 606 l 78 483 l 337 483 l 337 191 l 469 191 m 728 0 l 728 123 l 78 123 l 78 0 l 728 0 "},"Ú":{"x_min":97.359375,"x_max":734.359375,"ha":849,"o":"m 598 309 b 413 95 598 176 560 95 b 233 309 270 95 233 180 l 233 958 l 97 958 l 97 283 b 414 -15 97 81 225 -15 b 734 283 602 -15 734 81 l 734 958 l 598 958 l 598 309 m 471 1073 l 586 1305 l 421 1305 l 358 1073 l 471 1073 "},"|":{"x_min":110.25,"x_max":242.28125,"ha":360,"o":"m 242 -255 l 242 1156 l 110 1156 l 110 -255 l 242 -255 "},"§":{"x_min":45.921875,"x_max":609.921875,"ha":668,"o":"m 99 18 b 302 -15 149 -8 248 -15 b 584 176 418 -15 584 30 b 516 315 584 236 558 276 b 609 480 573 348 609 412 b 521 619 609 550 575 586 b 422 665 490 637 456 652 b 215 805 370 686 215 733 b 343 876 215 859 304 876 b 550 823 419 876 480 855 l 550 938 b 331 973 479 961 406 973 b 79 787 222 973 79 919 b 141 663 79 736 104 697 b 45 495 86 625 45 568 b 199 325 45 394 119 362 b 448 162 255 295 448 241 b 306 81 448 94 355 81 b 99 137 232 81 165 108 l 99 18 m 313 413 b 161 543 263 436 161 470 b 202 623 161 575 179 602 b 323 570 244 608 283 588 b 494 437 373 544 494 509 b 454 350 494 404 475 373 l 313 413 "},"Ý":{"x_min":-17.359375,"x_max":721.71875,"ha":721,"o":"m 419 0 l 419 443 l 721 958 l 572 958 l 351 588 l 132 958 l -17 958 l 283 443 l 283 0 l 419 0 m 408 1073 l 523 1305 l 358 1305 l 295 1073 l 408 1073 "},"b":{"x_min":87.109375,"x_max":601.609375,"ha":668,"o":"m 87 273 b 338 -15 87 101 152 -15 b 601 323 540 -15 601 140 b 381 676 601 475 570 676 b 212 570 308 676 242 638 l 209 570 l 209 958 l 87 958 l 87 273 m 332 81 b 209 331 206 81 209 241 b 347 579 209 413 243 579 b 465 327 454 579 465 405 b 332 81 465 237 451 81 "},"q":{"x_min":54.4375,"x_max":581.1875,"ha":694,"o":"m 581 -297 l 581 661 l 458 661 l 458 569 l 455 569 b 276 676 427 640 348 676 b 54 341 96 676 54 490 b 283 -15 54 191 98 -15 b 455 91 353 -15 430 20 l 458 91 l 458 -297 l 581 -297 m 317 81 b 190 330 201 81 190 244 b 318 579 190 416 200 579 b 458 329 428 579 458 413 b 317 81 458 237 434 81 "},"Ö":{"x_min":62.609375,"x_max":796.25,"ha":875,"o":"m 428 -15 b 796 479 720 -15 796 225 b 428 973 796 733 720 973 b 62 479 136 973 62 733 b 428 -15 62 225 137 -15 m 428 95 b 212 479 235 95 212 331 b 428 862 212 627 235 862 b 646 479 620 862 646 627 b 428 95 646 330 620 95 m 651 1090 l 651 1243 l 484 1243 l 484 1090 l 651 1090 m 371 1090 l 371 1243 l 204 1243 l 204 1090 l 371 1090 "},"z":{"x_min":26,"x_max":501,"ha":540,"o":"m 501 0 l 501 97 l 174 97 l 488 566 l 488 661 l 46 661 l 46 563 l 340 563 l 26 97 l 26 0 l 501 0 "},"ã":{"x_min":58.296875,"x_max":533.59375,"ha":643,"o":"m 533 0 l 533 463 b 321 676 533 605 462 676 b 80 477 192 676 80 625 l 209 477 b 312 579 209 543 248 579 b 411 480 366 579 411 548 l 411 379 b 58 162 271 379 58 348 b 241 -15 58 48 133 -15 b 408 81 308 -15 380 19 l 411 81 l 411 0 l 533 0 m 411 258 b 264 81 411 180 348 81 b 194 166 220 81 194 126 b 386 295 194 261 310 295 l 411 295 l 411 258 m 422 968 b 398 887 422 951 428 887 b 218 980 374 887 277 980 b 141 929 186 980 156 961 b 127 790 126 904 127 820 l 207 790 b 233 861 207 811 201 861 b 413 776 258 861 340 776 b 502 968 511 776 502 897 l 422 968 "},"æ":{"x_min":59.28125,"x_max":930.390625,"ha":1001,"o":"m 915 99 b 791 81 877 87 831 81 b 552 340 628 81 566 191 l 930 340 l 930 409 b 692 676 930 569 859 676 b 497 598 615 676 553 649 b 316 676 445 658 395 676 b 85 492 207 676 85 619 l 217 492 b 321 578 217 551 270 578 b 429 456 402 578 429 528 l 429 423 b 59 181 271 423 59 385 b 256 -15 59 62 140 -15 b 488 109 353 -15 437 24 b 746 -15 560 20 629 -15 b 915 8 805 -15 859 -7 l 915 99 m 552 423 b 685 578 552 506 595 578 b 807 423 777 578 807 505 l 552 423 m 429 287 b 282 81 429 191 394 81 b 181 185 218 81 181 123 b 394 340 181 299 301 340 l 429 340 l 429 287 "},"®":{"x_min":20.8125,"x_max":660.53125,"ha":694,"o":"m 660 647 b 340 973 660 826 516 973 b 20 647 165 973 20 826 b 340 320 20 466 165 320 b 660 647 517 320 660 466 m 612 647 b 340 369 612 495 489 369 b 68 647 192 369 68 495 b 340 925 68 798 192 925 b 612 647 489 925 612 798 m 474 483 l 411 631 b 469 716 450 651 469 666 b 332 827 469 809 410 827 l 219 827 l 219 483 l 280 483 l 280 622 l 354 622 l 406 483 l 474 483 m 280 677 l 280 768 l 348 768 b 406 722 377 768 406 756 b 354 677 406 690 381 677 l 280 677 "},"É":{"x_min":108.25,"x_max":639.078125,"ha":694,"o":"m 639 0 l 639 111 l 244 111 l 244 443 l 607 443 l 607 554 l 244 554 l 244 847 l 626 847 l 626 958 l 108 958 l 108 0 l 639 0 m 422 1073 l 537 1305 l 372 1305 l 309 1073 l 422 1073 "},"~":{"x_min":74,"x_max":735.5,"ha":824,"o":"m 649 468 b 536 376 623 423 588 376 b 412 422 497 376 461 393 b 267 463 369 448 321 463 b 74 338 173 463 121 409 l 159 237 b 272 329 184 276 219 329 b 395 284 316 329 355 308 b 542 241 442 255 494 241 b 735 366 629 241 685 288 l 649 468 "},"³":{"x_min":51.71875,"x_max":439.640625,"ha":507,"o":"m 238 831 b 343 722 308 831 343 793 b 243 613 343 650 315 613 b 160 688 200 613 160 637 l 51 688 b 249 541 54 577 160 541 b 439 723 366 541 439 597 b 344 869 439 795 409 850 b 428 1012 406 891 428 948 b 254 1166 428 1113 345 1166 b 62 1023 170 1166 68 1129 l 170 1023 b 249 1095 175 1075 201 1095 b 332 1000 311 1095 332 1058 b 238 904 332 940 296 904 l 210 904 l 210 831 l 238 831 "},"¡":{"x_min":69.421875,"x_max":234.109375,"ha":411,"o":"m 234 601 l 234 769 l 69 769 l 69 601 l 234 601 m 221 -188 l 221 495 l 92 495 l 92 -188 l 221 -188 "},"[":{"x_min":137.46875,"x_max":431.46875,"ha":463,"o":"m 431 -188 l 431 -91 l 266 -91 l 266 958 l 431 958 l 431 1055 l 137 1055 l 137 -188 l 431 -188 "},"L":{"x_min":108.890625,"x_max":605.703125,"ha":617,"o":"m 605 0 l 605 111 l 245 111 l 245 958 l 108 958 l 108 0 l 605 0 "}," ":{"x_min":0,"x_max":0,"ha":411},"%":{"x_min":36.75,"x_max":1124.28125,"ha":1183,"o":"m 907 -15 b 1124 295 1086 -15 1124 147 b 907 605 1124 444 1086 605 b 692 295 730 605 692 444 b 907 -15 692 147 730 -15 m 473 0 l 792 880 l 686 880 l 367 0 l 473 0 m 251 275 b 468 584 430 275 468 436 b 251 895 468 733 430 895 b 36 584 74 895 36 733 b 251 275 36 436 74 275 m 907 54 b 790 295 793 54 790 213 b 907 536 790 377 793 536 b 1026 295 1020 536 1026 379 b 907 54 1026 213 1022 54 m 251 344 b 134 586 137 344 134 504 b 251 826 134 668 137 826 b 370 586 364 826 370 669 b 251 344 370 504 366 344 "},"P":{"x_min":108.890625,"x_max":664.21875,"ha":694,"o":"m 245 0 l 245 416 l 366 416 b 664 686 533 416 664 501 b 334 958 664 906 521 958 l 108 958 l 108 0 l 245 0 m 245 527 l 245 847 l 341 847 b 514 686 451 847 514 808 b 341 527 514 573 445 527 l 245 527 "},"À":{"x_min":12,"x_max":821,"ha":849,"o":"m 821 0 l 498 958 l 331 958 l 12 0 l 155 0 l 246 273 l 584 273 l 676 0 l 821 0 m 547 384 l 278 384 l 414 830 l 416 830 l 547 384 m 471 1073 l 408 1305 l 244 1305 l 358 1073 l 471 1073 "},"_":{"x_min":0,"x_max":680.5625,"ha":694,"o":"m 680 -161 l 680 -90 l 0 -90 l 0 -161 l 680 -161 "},"ñ":{"x_min":100.390625,"x_max":605.25,"ha":721,"o":"m 605 0 l 605 458 b 431 676 605 573 560 676 b 225 519 329 676 262 613 l 222 519 l 222 661 l 100 661 l 100 0 l 222 0 l 222 280 b 394 551 222 377 274 551 b 481 443 463 551 477 504 b 482 361 482 415 482 387 l 482 0 l 605 0 m 460 968 b 437 887 460 951 467 887 b 256 980 413 887 315 980 b 179 929 224 980 194 961 b 165 790 164 904 165 820 l 246 790 b 271 861 246 811 239 861 b 452 776 296 861 379 776 b 541 968 550 776 541 897 l 460 968 "},"+":{"x_min":80.3125,"x_max":728.203125,"ha":824,"o":"m 469 0 l 469 291 l 728 291 l 728 415 l 469 415 l 469 676 l 337 676 l 337 415 l 80 415 l 80 291 l 337 291 l 337 0 l 469 0 "},"½":{"x_min":66.6875,"x_max":1064.640625,"ha":1183,"o":"m 426 0 l 743 880 l 638 880 l 321 0 l 426 0 m 280 280 l 280 883 l 198 883 l 66 808 l 66 719 b 182 791 103 743 145 768 l 182 280 l 280 280 m 1064 0 l 1064 72 l 796 72 b 1060 447 924 183 1060 295 b 878 613 1060 558 978 613 b 686 459 778 613 698 572 l 793 459 b 876 543 793 513 830 543 b 963 454 932 543 963 511 b 684 73 963 333 773 148 l 684 0 l 1064 0 "},"Æ":{"x_min":4,"x_max":1092.9375,"ha":1157,"o":"m 1092 0 l 1092 111 l 782 111 l 762 394 l 1065 394 l 1065 505 l 754 505 l 729 847 l 1080 847 l 1080 958 l 533 958 l 4 0 l 156 0 l 360 394 l 626 394 l 656 0 l 1092 0 m 617 505 l 421 505 l 592 840 l 594 840 l 617 505 "},"Ë":{"x_min":108.890625,"x_max":639.71875,"ha":694,"o":"m 639 0 l 639 111 l 245 111 l 245 443 l 608 443 l 608 554 l 245 554 l 245 847 l 627 847 l 627 958 l 108 958 l 108 0 l 639 0 m 597 1090 l 597 1243 l 430 1243 l 430 1090 l 597 1090 m 317 1090 l 317 1243 l 149 1243 l 149 1090 l 317 1090 "},"'":{"x_min":86,"x_max":244,"ha":335,"o":"m 216 641 l 244 958 l 86 958 l 111 641 l 216 641 "},"ª":{"x_min":46.28125,"x_max":304.890625,"ha":360,"o":"m 304 398 l 304 640 b 189 770 304 722 279 770 b 58 662 119 770 58 743 l 129 662 b 186 715 129 697 153 715 b 236 620 239 715 236 659 l 236 608 b 46 488 159 608 46 590 b 140 390 46 431 83 390 b 234 444 178 390 217 406 l 236 444 l 236 398 l 304 398 m 236 561 b 163 445 236 516 216 445 b 114 491 134 445 114 459 b 224 561 114 545 182 561 l 236 561 "},"ð":{"x_min":63.90625,"x_max":618.09375,"ha":694,"o":"m 428 637 b 313 676 397 666 352 676 b 63 330 125 676 63 491 b 341 -15 63 142 137 -15 b 618 330 545 -15 618 142 b 437 797 618 527 558 650 l 510 826 l 488 888 l 382 846 b 330 881 366 858 348 869 l 137 881 l 137 876 b 273 805 185 860 230 832 l 179 769 l 201 708 l 332 758 b 431 639 371 724 404 684 l 428 637 m 341 81 b 200 330 215 81 200 231 b 341 578 200 428 215 578 b 481 330 469 578 481 426 b 341 81 481 233 469 81 "},"T":{"x_min":0,"x_max":604.328125,"ha":617,"o":"m 370 0 l 370 847 l 604 847 l 604 958 l 0 958 l 0 847 l 234 847 l 234 0 l 370 0 "},"Þ":{"x_min":108.890625,"x_max":664.21875,"ha":694,"o":"m 245 0 l 245 213 l 357 213 b 664 504 562 213 664 275 b 357 784 664 727 558 784 l 245 784 l 245 958 l 108 958 l 108 0 l 245 0 m 245 325 l 245 673 l 360 673 b 514 498 468 673 514 601 b 360 325 514 391 469 325 l 245 325 "},"j":{"x_min":-76.21875,"x_max":258.609375,"ha":360,"o":"m 258 816 l 258 958 l 111 958 l 111 816 l 258 816 m -76 -294 b -40 -297 -63 -295 -53 -297 b 246 -56 114 -297 246 -234 l 246 661 l 123 661 l 123 -4 b -27 -200 123 -120 108 -200 b -76 -195 -43 -200 -59 -198 l -76 -294 "},"1":{"x_min":166.0625,"x_max":473.671875,"ha":746,"o":"m 473 0 l 473 880 l 359 880 l 166 770 l 166 650 l 337 755 l 337 0 l 473 0 "},"ä":{"x_min":58.53125,"x_max":539,"ha":643,"o":"m 534 0 l 534 463 b 322 676 534 605 464 676 b 80 477 193 676 80 625 l 209 477 b 313 579 209 543 249 579 b 412 480 367 579 412 548 l 412 379 b 58 162 272 379 58 348 b 242 -15 58 48 133 -15 b 409 81 308 -15 381 19 l 412 81 l 412 0 l 534 0 m 412 258 b 265 81 412 180 349 81 b 194 166 220 81 194 126 b 387 295 194 261 311 295 l 412 295 l 412 258 m 539 793 l 539 945 l 371 945 l 371 793 l 539 793 m 258 793 l 258 945 l 91 945 l 91 793 l 258 793 "},"<":{"x_min":78.953125,"x_max":728.203125,"ha":824,"o":"m 728 0 l 728 126 l 204 337 l 728 548 l 728 675 l 78 401 l 78 275 l 728 0 "},"£":{"x_min":40.828125,"x_max":642.453125,"ha":643,"o":"m 613 0 l 613 111 l 264 111 l 264 409 l 439 409 l 439 500 l 264 500 l 264 677 b 381 827 264 761 287 827 b 496 715 450 827 492 786 l 642 715 b 619 802 642 747 631 776 b 383 925 568 890 480 925 b 137 709 245 925 137 866 l 137 500 l 40 500 l 40 409 l 137 409 l 137 0 l 613 0 "},"¹":{"x_min":110.25,"x_max":323.9375,"ha":507,"o":"m 323 552 l 323 1155 l 242 1155 l 110 1080 l 110 991 l 225 1063 l 225 552 l 323 552 "},"t":{"x_min":38.109375,"x_max":455.96875,"ha":489,"o":"m 445 91 b 379 81 424 84 401 81 b 276 210 294 81 276 137 l 276 563 l 455 563 l 455 660 l 276 660 l 276 894 l 153 816 l 153 660 l 38 660 l 38 563 l 153 563 l 153 145 b 348 -15 153 19 234 -15 b 445 -6 381 -15 413 -12 l 445 91 "},"¬":{"x_min":78.9375,"x_max":728.203125,"ha":824,"o":"m 728 154 l 728 538 l 78 538 l 78 415 l 596 415 l 596 154 l 728 154 "},"ù":{"x_min":93.53125,"x_max":598.1875,"ha":721,"o":"m 598 0 l 598 661 l 475 661 l 475 380 b 304 109 475 283 424 109 b 217 218 235 109 221 155 b 215 300 215 245 215 272 l 215 661 l 93 661 l 93 202 b 267 -15 93 87 137 -15 b 472 141 369 -15 440 48 l 475 141 l 475 0 l 598 0 m 409 776 l 346 1008 l 182 1008 l 296 776 l 409 776 "},"W":{"x_min":37,"x_max":1149,"ha":1208,"o":"m 977 0 l 1149 958 l 1025 958 l 887 193 l 884 193 l 653 958 l 533 958 l 301 193 l 298 193 l 160 958 l 37 958 l 212 0 l 363 0 l 592 752 l 595 752 l 826 0 l 977 0 "},"ï":{"x_min":-47.640625,"x_max":400.171875,"ha":360,"o":"m 236 0 l 236 661 l 114 661 l 114 0 l 236 0 m 400 793 l 400 945 l 232 945 l 232 793 l 400 793 m 119 793 l 119 945 l -47 945 l -47 793 l 119 793 "},">":{"x_min":78.796875,"x_max":728.046875,"ha":824,"o":"m 728 275 l 728 401 l 78 675 l 78 548 l 604 337 l 78 126 l 78 0 l 728 275 "},"v":{"x_min":5,"x_max":600,"ha":617,"o":"m 375 0 l 600 661 l 463 661 l 312 180 l 309 180 l 141 661 l 5 661 l 250 0 l 375 0 "},"û":{"x_min":94.5625,"x_max":599.46875,"ha":721,"o":"m 599 0 l 599 661 l 476 661 l 476 380 b 305 109 476 283 425 109 b 218 218 236 109 222 155 b 217 300 217 245 217 272 l 217 661 l 94 661 l 94 202 b 268 -15 94 87 138 -15 b 474 141 370 -15 441 48 l 476 141 l 476 0 l 599 0 m 560 776 l 425 983 l 278 983 l 149 776 l 259 776 l 353 893 l 449 776 l 560 776 "},"Ò":{"x_min":62.359375,"x_max":795.6875,"ha":875,"o":"m 428 -15 b 795 479 719 -15 795 225 b 428 973 795 733 719 973 b 62 479 135 973 62 733 b 428 -15 62 225 137 -15 m 428 95 b 212 479 235 95 212 331 b 428 862 212 627 235 862 b 645 479 620 862 645 627 b 428 95 645 330 620 95 m 484 1073 l 421 1305 l 257 1305 l 371 1073 l 484 1073 "},"&":{"x_min":70.78125,"x_max":902.421875,"ha":926,"o":"m 902 92 b 835 82 880 86 857 82 b 736 207 754 82 736 136 l 736 439 l 902 439 l 902 536 l 736 536 l 736 878 l 613 799 l 613 536 l 363 536 b 235 684 283 536 235 606 b 371 838 235 771 281 838 b 503 803 420 838 460 824 l 503 902 b 357 925 455 918 406 925 b 85 692 209 925 85 863 b 250 488 85 570 145 521 l 250 485 b 70 245 123 456 70 377 b 367 -14 70 56 198 -14 b 511 4 415 -14 464 -7 l 511 104 b 386 82 472 89 430 82 b 220 252 281 82 220 145 b 363 439 220 346 258 439 l 613 439 l 613 154 b 805 -14 613 21 686 -14 b 902 -4 838 -14 871 -11 l 902 92 "},"Ð":{"x_min":0,"x_max":745.890625,"ha":824,"o":"m 349 0 b 745 481 658 0 745 190 b 349 958 745 768 658 958 l 108 958 l 108 537 l 0 537 l 0 459 l 108 459 l 108 0 l 349 0 m 245 111 l 245 459 l 426 459 l 426 537 l 245 537 l 245 847 l 323 847 b 462 823 371 847 419 844 b 596 479 588 768 596 595 b 470 138 596 362 583 202 b 325 111 427 116 374 111 l 245 111 "},"I":{"x_min":108.890625,"x_max":245,"ha":360,"o":"m 245 0 l 245 958 l 108 958 l 108 0 l 245 0 "},"G":{"x_min":62.609375,"x_max":749.96875,"ha":849,"o":"m 613 133 b 454 95 588 104 488 95 b 212 508 232 95 212 336 b 430 862 212 659 240 862 b 593 701 529 862 593 804 l 744 701 b 431 973 744 888 598 973 b 62 508 155 973 62 758 b 458 -15 62 231 147 -15 b 749 75 555 -15 671 16 l 749 552 l 413 552 l 413 441 l 613 441 l 613 133 "},"`":{"x_min":60,"x_max":287,"ha":472,"o":"m 287 776 l 224 1008 l 60 1008 l 174 776 l 287 776 "},"·":{"x_min":80.3125,"x_max":247.71875,"ha":335,"o":"m 247 355 l 247 526 l 80 526 l 80 355 l 247 355 "},"r":{"x_min":100.71875,"x_max":426.03125,"ha":463,"o":"m 223 0 l 223 280 b 426 540 223 425 269 540 l 426 676 b 225 527 329 676 257 620 l 223 527 l 223 661 l 100 661 l 100 0 l 223 0 "},"¿":{"x_min":25.859375,"x_max":503.609375,"ha":617,"o":"m 432 601 l 432 769 l 265 769 l 265 601 l 432 601 m 503 -48 b 310 -98 447 -75 371 -98 b 163 18 238 -98 163 -68 b 242 151 163 76 205 113 l 323 234 b 409 429 396 308 409 322 l 409 495 l 283 495 l 283 456 b 204 287 283 363 265 350 l 147 229 b 25 12 81 162 25 118 b 308 -204 25 -148 174 -204 b 503 -177 374 -204 439 -193 l 503 -48 "},"ý":{"x_min":4,"x_max":602,"ha":617,"o":"m 279 -284 l 602 661 l 465 661 l 313 183 l 310 183 l 140 661 l 4 661 l 250 -4 l 159 -284 l 279 -284 m 364 776 l 479 1008 l 314 1008 l 251 776 l 364 776 "},"x":{"x_min":14,"x_max":618,"ha":643,"o":"m 618 0 l 385 348 l 590 661 l 447 661 l 316 458 l 184 661 l 41 661 l 246 348 l 14 0 l 156 0 l 317 240 l 475 0 l 618 0 "},"è":{"x_min":53.171875,"x_max":551.03125,"ha":617,"o":"m 536 105 b 413 81 496 90 457 81 b 175 379 250 81 175 230 l 551 379 l 551 411 b 316 676 551 562 474 676 b 53 362 130 676 53 543 b 374 -15 53 145 142 -15 b 536 6 429 -15 481 -5 l 536 105 m 181 462 b 190 502 181 475 185 490 b 310 579 212 552 257 579 b 428 462 378 579 428 533 l 181 462 m 370 776 l 307 1008 l 143 1008 l 257 776 l 370 776 "},"º":{"x_min":31.3125,"x_max":347.078125,"ha":386,"o":"m 189 391 b 347 581 302 391 347 475 b 189 770 347 687 302 770 b 31 581 76 770 31 687 b 189 391 31 475 76 391 m 189 447 b 107 581 117 447 107 523 b 189 715 107 638 117 715 b 270 581 261 715 270 638 b 189 447 270 523 261 447 "},"Ø":{"x_min":63.171875,"x_max":796.96875,"ha":875,"o":"m 146 -58 l 212 52 b 429 -15 286 -6 335 -15 b 796 479 720 -15 796 225 b 705 851 796 607 786 747 l 783 978 l 715 1021 l 647 910 b 429 974 572 960 517 974 b 63 479 136 974 63 733 b 153 112 63 348 67 219 l 76 -13 l 146 -58 m 237 247 b 212 479 219 325 212 397 b 429 862 212 628 236 862 b 579 801 487 862 540 847 l 237 247 m 623 715 b 647 479 644 639 647 558 b 429 96 647 323 628 96 b 276 158 369 96 316 109 l 623 715 "},"÷":{"x_min":78.9375,"x_max":728.203125,"ha":824,"o":"m 483 544 l 483 706 l 323 706 l 323 544 l 483 544 m 728 291 l 728 415 l 78 415 l 78 291 l 728 291 m 483 0 l 483 162 l 323 162 l 323 0 l 483 0 "},"h":{"x_min":100.71875,"x_max":605.703125,"ha":721,"o":"m 605 0 l 605 458 b 431 676 605 573 560 676 b 225 519 329 676 262 613 l 223 519 l 223 958 l 100 958 l 100 0 l 223 0 l 223 280 b 394 551 223 377 274 551 b 481 443 464 551 477 504 b 483 361 483 415 483 387 l 483 0 l 605 0 "},".":{"x_min":69.421875,"x_max":257.25,"ha":335,"o":"m 257 0 l 257 191 l 69 191 l 69 0 l 257 0 "},";":{"x_min":148.796875,"x_max":337.984375,"ha":386,"o":"m 337 469 l 337 661 l 150 661 l 150 469 l 337 469 m 261 -129 l 333 191 l 163 191 l 148 -129 l 261 -129 "},"f":{"x_min":34.03125,"x_max":529.46875,"ha":489,"o":"m 273 0 l 273 563 l 466 563 l 466 661 l 273 661 l 273 729 b 400 876 273 811 313 876 b 529 856 445 876 487 869 l 529 961 b 398 973 487 970 442 973 b 151 737 243 973 151 902 l 151 661 l 34 661 l 34 563 l 151 563 l 151 0 l 273 0 "},"A":{"x_min":12,"x_max":821,"ha":849,"o":"m 821 0 l 499 958 l 332 958 l 12 0 l 156 0 l 247 273 l 584 273 l 676 0 l 821 0 m 547 384 l 278 384 l 415 830 l 417 830 l 547 384 "},"6":{"x_min":92.5625,"x_max":675.109375,"ha":746,"o":"m 657 690 b 394 895 646 837 528 895 b 92 452 129 895 92 672 b 396 -15 92 223 115 -15 b 675 256 564 -15 675 80 b 435 533 675 415 601 533 b 228 442 349 533 283 508 b 393 798 228 565 221 798 b 507 690 455 798 507 755 l 657 690 m 386 81 b 245 259 288 81 245 170 b 392 435 245 352 289 435 b 539 259 499 435 539 358 b 386 81 539 152 500 81 "},"O":{"x_min":62.609375,"x_max":796.25,"ha":875,"o":"m 428 -15 b 796 479 720 -15 796 225 b 428 973 796 733 720 973 b 62 479 136 973 62 733 b 428 -15 62 225 137 -15 m 428 95 b 212 479 235 95 212 331 b 428 862 212 627 235 862 b 646 479 620 862 646 627 b 428 95 646 330 620 95 "},"n":{"x_min":100.71875,"x_max":605.703125,"ha":721,"o":"m 605 0 l 605 458 b 431 676 605 573 560 676 b 225 519 329 676 262 613 l 223 519 l 223 661 l 100 661 l 100 0 l 223 0 l 223 280 b 394 551 223 377 274 551 b 481 443 464 551 477 504 b 483 361 483 415 483 387 l 483 0 l 605 0 "},"3":{"x_min":57.171875,"x_max":624.75,"ha":746,"o":"m 469 465 b 608 673 570 490 608 575 b 353 895 608 819 485 895 b 74 693 228 895 81 841 l 224 693 b 347 798 231 769 272 798 b 472 654 439 798 472 743 b 329 509 472 563 417 509 l 294 509 l 294 412 l 329 412 b 488 244 436 412 488 351 b 337 81 488 137 446 81 b 210 191 270 81 210 118 l 57 191 b 345 -15 61 34 216 -15 b 624 247 517 -15 624 62 b 469 462 624 356 575 437 l 469 465 "},"9":{"x_min":62.609375,"x_max":646.53125,"ha":746,"o":"m 80 190 b 343 -15 91 41 209 -15 b 646 427 607 -15 646 208 b 343 896 646 657 623 896 b 62 625 175 896 62 802 b 303 348 62 465 136 348 b 510 437 389 348 455 372 b 344 82 510 315 515 82 b 231 190 283 82 231 126 l 80 190 m 345 446 b 197 622 236 446 197 521 b 351 798 197 729 236 798 b 496 621 450 798 496 714 b 345 446 496 521 449 446 "},"l":{"x_min":114.328125,"x_max":236.828125,"ha":360,"o":"m 236 0 l 236 958 l 114 958 l 114 0 l 236 0 "},"¤":{"x_min":85.046875,"x_max":714.3125,"ha":843,"o":"m 650 174 l 714 241 b 621 331 683 271 653 302 b 672 491 655 383 672 437 b 621 651 672 541 659 597 l 714 743 l 650 809 l 556 716 b 400 768 510 752 450 768 b 242 716 352 768 297 755 b 150 809 211 748 178 777 l 85 743 b 178 651 116 711 147 683 b 127 491 144 602 127 547 b 178 331 127 435 146 380 l 85 241 l 150 174 b 242 267 178 206 211 235 b 400 214 293 228 352 214 b 557 267 458 214 513 234 l 650 174 m 581 492 b 400 308 581 391 499 308 b 219 492 301 308 219 394 b 400 674 219 590 297 674 b 581 492 491 674 581 601 "},"4":{"x_min":49,"x_max":703.703125,"ha":746,"o":"m 555 0 l 555 229 l 703 229 l 703 326 l 555 326 l 555 880 l 405 880 l 49 315 l 49 229 l 419 229 l 419 0 l 555 0 m 419 326 l 174 326 l 416 734 l 419 734 l 419 326 "},"p":{"x_min":100.71875,"x_max":627.46875,"ha":694,"o":"m 223 -297 l 223 90 l 225 90 b 398 -15 255 18 325 -15 b 627 341 583 -15 627 191 b 405 676 627 490 583 676 b 225 561 332 676 254 631 l 223 561 l 223 661 l 100 661 l 100 -297 l 223 -297 m 364 81 b 223 329 243 81 223 236 b 362 579 223 413 251 579 b 491 330 481 579 491 419 b 364 81 491 244 480 81 "},"à":{"x_min":58.25,"x_max":534.328125,"ha":643,"o":"m 534 0 l 534 463 b 322 676 534 605 463 676 b 80 477 192 676 80 625 l 209 477 b 312 579 209 543 248 579 b 411 480 366 579 411 548 l 411 379 b 58 162 271 379 58 348 b 241 -15 58 48 133 -15 b 409 81 308 -15 380 19 l 411 81 l 411 0 l 534 0 m 411 258 b 264 81 411 180 349 81 b 194 166 220 81 194 126 b 387 295 194 261 311 295 l 411 295 l 411 258 m 371 776 l 308 1008 l 144 1008 l 258 776 l 371 776 "},"Ü":{"x_min":98,"x_max":735,"ha":849,"o":"m 598 309 b 413 95 598 176 560 95 b 234 309 270 95 234 180 l 234 958 l 98 958 l 98 283 b 415 -15 98 81 225 -15 b 735 283 602 -15 735 81 l 735 958 l 598 958 l 598 309 m 639 1090 l 639 1243 l 472 1243 l 472 1090 l 639 1090 m 359 1090 l 359 1243 l 191 1243 l 191 1090 l 359 1090 "},"ó":{"x_min":54.03125,"x_max":627.0625,"ha":694,"o":"m 341 -15 b 627 330 548 -15 627 137 b 341 676 627 523 548 676 b 54 330 132 676 54 523 b 341 -15 54 136 132 -15 m 341 81 b 190 330 206 81 190 225 b 341 579 190 437 206 579 b 490 330 475 579 490 434 b 341 81 490 226 474 81 m 395 776 l 510 1008 l 345 1008 l 282 776 l 395 776 "}}}
